<svg width="64" height="64" viewBox="0 0 64 64" fill="none" xmlns="http://www.w3.org/2000/svg">
<g clip-path="url(#clip0_195_35)">
<rect width="64" height="64" rx="18" fill="#1F2937"/>
<path d="M26.984 39.3085C26.984 41.8166 28.0507 43.0707 30.184 43.0707C32.5191 43.0707 34.0903 42.2635 34.8975 40.6491C35.1858 40.0725 35.3299 39.3374 35.3299 38.4437C35.3299 37.5211 35.1137 36.6707 34.6813 35.8923C33.9606 34.6527 32.7209 33.2833 30.9624 31.7842C28.0507 29.3049 26.5948 26.7392 26.5948 24.0869C26.5948 21.4058 27.4308 19.3446 29.1029 17.9031C30.775 16.4617 32.6921 15.741 34.8543 15.741C37.0164 15.741 38.7317 16.2887 40.0002 17.3842C41.2687 18.4797 41.9029 20.1229 41.9029 22.3139C41.9029 23.7554 41.4128 25.0094 40.4326 26.0761C39.4813 27.1428 38.2128 27.8058 36.6272 28.0653C37.3479 28.6707 38.0687 29.2905 38.7894 29.9247C39.4813 30.559 40.1155 31.2509 40.6921 32.0004C41.9606 33.7013 42.5948 35.7338 42.5948 38.0977C42.5948 39.741 42.2056 41.2257 41.4272 42.5518C40.6777 43.8779 39.6831 45.0022 38.4434 45.9248C37.2326 46.8184 35.8633 47.5103 34.3353 48.0004C32.8074 48.4905 31.3804 48.7356 30.0543 48.7356C27.229 48.7356 25.038 48.0869 23.4813 46.7896C21.6651 45.3193 20.757 43.2004 20.757 40.4329C20.757 38.6166 21.3479 36.8581 22.5299 35.1572C23.7119 33.4563 24.966 32.6058 26.2921 32.6058C27.3299 32.6058 27.8489 32.9229 27.8489 33.5572C27.8489 34.4797 27.7047 35.4022 27.4164 36.3248C27.1281 37.2184 26.984 38.213 26.984 39.3085ZM35.3732 27.0275C37.0164 25.3842 37.838 23.6689 37.838 21.8815C37.838 21.3338 37.5498 20.8725 36.9732 20.4977C36.3389 20.1518 35.6759 19.9788 34.984 19.9788C33.4272 19.9788 32.3029 20.4833 31.611 21.4923C31.957 22.732 32.4615 23.7842 33.1245 24.6491C33.8164 25.5139 34.566 26.3067 35.3732 27.0275Z" fill="white"/>
</g>
<defs>
<clipPath id="clip0_195_35">
<rect width="64" height="64" fill="white"/>
</clipPath>
</defs>
</svg>
