<svg width="296" height="296" viewBox="0 0 296 296" fill="none" xmlns="http://www.w3.org/2000/svg">
<rect width="296" height="296" rx="92" fill="#FAFAFA"/>
<path d="M124.8 181.8C124.8 193.4 129.733 199.2 139.6 199.2C150.4 199.2 157.667 195.467 161.4 188C162.733 185.333 163.4 181.933 163.4 177.8C163.4 173.533 162.4 169.6 160.4 166C157.067 160.267 151.333 153.933 143.2 147C129.733 135.533 123 123.667 123 111.4C123 99.0001 126.867 89.4667 134.6 82.8001C142.333 76.1334 151.2 72.8 161.2 72.8C171.2 72.8 179.133 75.3334 185 80.4C190.867 85.4667 193.8 93.0667 193.8 103.2C193.8 109.867 191.533 115.667 187 120.6C182.6 125.533 176.733 128.6 169.4 129.8C172.733 132.6 176.067 135.467 179.4 138.4C182.6 141.333 185.533 144.533 188.2 148C194.067 155.867 197 165.267 197 176.2C197 183.8 195.2 190.667 191.6 196.8C188.133 202.933 183.533 208.133 177.8 212.4C172.2 216.533 165.867 219.733 158.8 222C151.733 224.267 145.133 225.4 139 225.4C125.933 225.4 115.8 222.4 108.6 216.4C100.2 209.6 96 199.8 96 187C96 178.6 98.7333 170.467 104.2 162.6C109.667 154.733 115.467 150.8 121.6 150.8C126.4 150.8 128.8 152.267 128.8 155.2C128.8 159.467 128.133 163.733 126.8 168C125.467 172.133 124.8 176.733 124.8 181.8ZM163.6 125C171.2 117.4 175 109.467 175 101.2C175 98.6667 173.667 96.5334 171 94.8001C168.067 93.2 165 92.4 161.8 92.4C154.6 92.4 149.4 94.7334 146.2 99.4001C147.8 105.133 150.133 110 153.2 114C156.4 118 159.867 121.667 163.6 125Z" fill="#1F2937"/>
</svg>
